<?xml version="1.0" standalone="no"?>
<!DOCTYPE svg PUBLIC "-//W3C//DTD SVG 20010904//EN"
 "http://www.w3.org/TR/2001/REC-SVG-20010904/DTD/svg10.dtd">
<svg version="1.0" xmlns="http://www.w3.org/2000/svg"
 width="1008.000000pt" height="1008.000000pt" viewBox="0 0 1008.000000 1008.000000"
 preserveAspectRatio="xMidYMid meet">
<metadata>
Created by potrace 1.14, written by Peter Selinger 2001-2017
</metadata>
<g transform="translate(0.000000,1008.000000) scale(0.100000,-0.100000)"
fill="#000000" stroke="none">
<path d="M4964 9321 c-23 -10 -50 -32 -61 -47 -21 -29 -133 -214 -133 -219 0
-2 -47 -82 -105 -180 -58 -97 -105 -181 -105 -186 0 -5 -4 -9 -9 -9 -5 0 -11
-8 -14 -17 -4 -10 -17 -36 -30 -58 -34 -55 -385 -652 -409 -695 -11 -19 -32
-55 -47 -80 -78 -127 -140 -239 -151 -273 -17 -54 -19 -134 -4 -189 13 -53 13
-52 179 -333 64 -110 140 -238 167 -285 28 -47 58 -98 68 -115 10 -16 109
-185 220 -375 112 -190 270 -460 353 -600 82 -140 171 -291 197 -335 26 -44
108 -183 182 -310 74 -126 249 -423 388 -660 138 -236 264 -450 279 -475 15
-25 47 -77 70 -116 23 -39 57 -85 76 -102 49 -45 127 -83 187 -91 29 -3 494
-6 1033 -6 904 1 982 2 1012 18 73 39 110 105 100 179 -3 21 -23 69 -45 106
-22 37 -49 83 -59 102 -11 19 -48 82 -83 140 -34 58 -70 119 -80 135 -31 55
-320 547 -435 740 -61 105 -145 246 -185 315 -40 69 -123 211 -185 315 -134
227 -757 1286 -968 1645 -82 140 -171 291 -197 335 -26 44 -57 96 -67 115 -11
19 -42 71 -68 115 -26 44 -56 94 -65 110 -21 36 -245 417 -271 460 -10 17 -24
41 -32 55 -7 14 -82 142 -167 285 -356 605 -324 557 -387 589 -42 21 -98 20
-149 -3z"/>
<path d="M3304 6490 c-45 -20 -84 -52 -84 -69 0 -6 -4 -11 -10 -11 -5 0 -10
-4 -10 -9 0 -5 -43 -83 -96 -173 -54 -89 -135 -228 -182 -308 -47 -80 -121
-206 -165 -280 -44 -74 -88 -148 -97 -165 -28 -48 -109 -185 -231 -393 -63
-106 -125 -212 -138 -235 -13 -23 -57 -98 -97 -166 -41 -68 -74 -128 -74 -132
0 -5 -4 -9 -9 -9 -5 0 -11 -6 -13 -13 -2 -10 -122 -219 -159 -277 -5 -8 -50
-85 -99 -170 -50 -85 -94 -162 -99 -170 -34 -56 -491 -832 -521 -885 -9 -16
-31 -52 -47 -80 -41 -68 -200 -338 -383 -650 -84 -143 -243 -413 -353 -600
-199 -339 -280 -477 -297 -505 -131 -217 -143 -243 -137 -295 8 -75 36 -114
104 -149 29 -14 131 -16 1031 -16 1085 0 1052 -2 1142 55 73 46 103 86 228
305 11 19 55 96 99 170 80 136 273 463 453 770 129 219 389 661 401 680 28 47
266 452 287 490 13 25 28 50 32 55 4 6 17 26 28 45 10 19 56 98 102 175 46 77
91 154 100 170 9 17 123 210 252 430 129 220 240 416 247 436 17 53 20 136 6
188 -14 55 -28 82 -107 215 -34 56 -69 115 -78 131 -14 25 -45 78 -90 155 -5
8 -30 51 -56 95 -26 44 -111 188 -190 321 -78 133 -153 259 -165 280 -34 62
-249 425 -275 466 -13 21 -24 42 -24 47 0 20 -81 80 -117 87 -21 4 -45 8 -54
9 -9 2 -33 -5 -55 -15z"/>
<path d="M4557 2783 c-68 -14 -138 -52 -184 -100 -26 -28 -272 -439 -728
-1218 -45 -77 -131 -223 -190 -325 -101 -172 -109 -189 -108 -236 1 -60 34
-118 85 -149 33 -20 67 -20 3266 -23 3151 -2 3235 -2 3277 17 23 10 55 36 71
57 25 32 29 46 28 98 0 59 -4 67 -104 236 -56 96 -111 189 -121 205 -11 17
-22 37 -26 45 -3 8 -21 39 -40 68 -18 29 -33 54 -33 57 0 2 -17 32 -38 67 -33
53 -154 259 -182 308 -5 8 -51 86 -102 173 -51 87 -97 166 -103 175 -17 30
-139 236 -150 254 -5 9 -26 44 -45 78 -65 118 -146 185 -260 217 -8 3 -969 5
-2134 6 -1620 2 -2134 -1 -2179 -10z"/>
</g>
</svg>
